<svg width="16" height="16" viewBox="0 0 16 16" fill="none" xmlns="http://www.w3.org/2000/svg">
<path d="M2.66675 4.0013C2.66675 3.64768 2.80722 3.30854 3.05727 3.05849C3.30732 2.80844 3.64646 2.66797 4.00008 2.66797H12.0001C12.3537 2.66797 12.6928 2.80844 12.9429 3.05849C13.1929 3.30854 13.3334 3.64768 13.3334 4.0013V12.0013C13.3334 12.3549 13.1929 12.6941 12.9429 12.9441C12.6928 13.1942 12.3537 13.3346 12.0001 13.3346H4.00008C3.64646 13.3346 3.30732 13.1942 3.05727 12.9441C2.80722 12.6941 2.66675 12.3549 2.66675 12.0013V4.0013Z" stroke="#D1D5DB" stroke-linecap="round" stroke-linejoin="round"/>
<path d="M10 2.66797V13.3346" stroke="#D1D5DB" stroke-linecap="round" stroke-linejoin="round"/>
<path d="M6 6.66797L7.33333 8.0013L6 9.33464" stroke="#D1D5DB" stroke-linecap="round" stroke-linejoin="round"/>
</svg>
