<svg width="16" height="16" viewBox="0 0 16 16" fill="none" xmlns="http://www.w3.org/2000/svg">
<path d="M14.7964 0H12.1953V3.76894H16.0013V1.06274C16.0023 1.06274 15.8132 0.10278 14.7964 0Z" fill="#1967D2"/>
<path d="M12.1953 15.9819V15.9912V15.9994L16.0013 12.2305H15.9672L12.1953 15.9819Z" fill="#1967D2"/>
<path d="M16.0025 12.2291V12.1953L15.9688 12.2291H16.0025Z" fill="#FBBC05"/>
<path d="M16.0013 3.76953H12.1953V12.1975H16.0013V3.76953Z" fill="#FBBC05"/>
<path d="M15.9672 12.2305H12.1953V15.9819L15.9672 12.2305Z" fill="#EA4335"/>
<path d="M12.1953 12.2291H15.9672L16.0013 12.1953H12.1953V12.2291Z" fill="#EA4335"/>
<path d="M12.1875 15.9936H12.1967V15.9844L12.1875 15.9936Z" fill="#34A853"/>
<path d="M3.71875 12.1953V15.9899H12.1833L12.1926 12.1953H3.71875Z" fill="#34A853"/>
<path d="M12.1967 12.2292V12.1953L12.1875 15.9899L12.1967 15.9807V12.2292Z" fill="#34A853"/>
<path d="M0 12.1953V14.8337C0.0341019 15.6898 0.96002 15.9899 0.96002 15.9899H3.72021V12.1953H0Z" fill="#188038"/>
<path d="M3.72021 3.76894H12.194V0H1.06749C1.06749 0 0.0682038 0.10278 0 1.1645V12.1969H3.72021V3.76894Z" fill="#4285F4"/>
<path d="M6.49319 10.4892C6.29932 10.4892 6.11238 10.4639 5.93237 10.4134C5.75696 10.3629 5.59541 10.2872 5.44771 10.1862C5.3 10.0806 5.16845 9.94973 5.05305 9.79364C4.94227 9.63755 4.85688 9.45621 4.79688 9.24963L5.64849 8.9122C5.7085 9.14174 5.81005 9.31619 5.95314 9.43555C6.09623 9.55033 6.27624 9.60771 6.49319 9.60771C6.59012 9.60771 6.68244 9.59394 6.77014 9.56639C6.85784 9.53426 6.934 9.49064 6.99862 9.43555C7.06324 9.38046 7.11401 9.31619 7.15094 9.24274C7.19248 9.1647 7.21325 9.07747 7.21325 8.98106C7.21325 8.77907 7.13709 8.62068 6.98477 8.50591C6.83707 8.39114 6.63166 8.33375 6.36856 8.33375H5.96006V7.51429H6.33394C6.42626 7.51429 6.51627 7.50281 6.60397 7.47986C6.69167 7.4569 6.76783 7.42247 6.83245 7.37656C6.90169 7.32607 6.95477 7.26409 6.9917 7.19064C7.03324 7.11259 7.05401 7.02307 7.05401 6.92207C7.05401 6.76598 6.99862 6.63974 6.88784 6.54333C6.77706 6.44233 6.62705 6.39183 6.4378 6.39183C6.2347 6.39183 6.07776 6.44692 5.96698 6.5571C5.86082 6.66269 5.78697 6.78205 5.74543 6.91519L4.91458 6.57776C4.95612 6.46299 5.01843 6.34592 5.10152 6.22656C5.1846 6.10261 5.28846 5.99243 5.41309 5.89602C5.54233 5.79502 5.69234 5.71468 5.86313 5.655C6.03391 5.59073 6.23009 5.55859 6.45164 5.55859C6.67782 5.55859 6.88322 5.59073 7.06786 5.655C7.2571 5.71927 7.41866 5.80879 7.55252 5.92357C7.68638 6.03375 7.79023 6.16688 7.86408 6.32297C7.93794 6.47447 7.97486 6.63974 7.97486 6.81878C7.97486 6.9565 7.9564 7.08046 7.91947 7.19064C7.88716 7.30082 7.84331 7.39952 7.78792 7.48675C7.73253 7.57397 7.66791 7.64972 7.59406 7.71399C7.52482 7.77367 7.45328 7.82188 7.37942 7.8586V7.91369C7.60098 8.00092 7.78331 8.14094 7.9264 8.33375C8.0741 8.52657 8.14796 8.76988 8.14796 9.0637C8.14796 9.27029 8.10872 9.4608 8.03025 9.63526C7.95178 9.80512 7.8387 9.95432 7.69099 10.0829C7.5479 10.2114 7.37481 10.3101 7.17171 10.379C6.96862 10.4524 6.74244 10.4892 6.49319 10.4892Z" fill="#4285F4"/>
<path d="M9.80137 10.379V6.72926L8.9636 7.08046L8.63127 6.31608L10.0229 5.66877H10.7084V10.379H9.80137Z" fill="#4285F4"/>
</svg>
