<svg width="16" height="16" viewBox="0 0 16 16" fill="none" xmlns="http://www.w3.org/2000/svg">
<path d="M9.33341 6.66667L8.00008 7.33333M8.00008 7.33333L6.66675 6.66667M8.00008 7.33333V9M13.3334 4.66667L12.0001 5.33333M13.3334 4.66667L12.0001 4M13.3334 4.66667V6.33333M9.33341 2.66667L8.00008 2L6.66675 2.66667M2.66675 4.66667L4.00008 4M2.66675 4.66667L4.00008 5.33333M2.66675 4.66667V6.33333M8.00008 14L6.66675 13.3333M8.00008 14L9.33341 13.3333M8.00008 14V12.3333M4.00008 12L2.66675 11.3333V9.66667M12.0001 12L13.3334 11.3333V9.66667" stroke="white" stroke-linecap="round" stroke-linejoin="round"/>
</svg>
