<svg width="20" height="20" viewBox="0 0 20 20" fill="none" xmlns="http://www.w3.org/2000/svg">
<g clip-path="url(#clip0_2_11040)">
<path d="M6.66675 5.83333C6.66675 6.71739 7.01794 7.56523 7.64306 8.19036C8.26818 8.81548 9.11603 9.16667 10.0001 9.16667C10.8841 9.16667 11.732 8.81548 12.3571 8.19036C12.9822 7.56523 13.3334 6.71739 13.3334 5.83333C13.3334 4.94928 12.9822 4.10143 12.3571 3.47631C11.732 2.85119 10.8841 2.5 10.0001 2.5C9.11603 2.5 8.26818 2.85119 7.64306 3.47631C7.01794 4.10143 6.66675 4.94928 6.66675 5.83333Z" stroke="#5521B5" stroke-width="1.5" stroke-linecap="round" stroke-linejoin="round"/>
<path d="M5 17.5V15.8333C5 14.9493 5.35119 14.1014 5.97631 13.4763C6.60143 12.8512 7.44928 12.5 8.33333 12.5H11.25" stroke="#5521B5" stroke-width="1.5" stroke-linecap="round" stroke-linejoin="round"/>
<path d="M15.8333 18.332V18.3404" stroke="#5521B5" stroke-width="1.5" stroke-linecap="round" stroke-linejoin="round"/>
<path d="M15.8333 15.8331C16.2068 15.8319 16.5692 15.7055 16.8624 15.4739C17.1556 15.2424 17.3626 14.9192 17.4504 14.5561C17.5381 14.193 17.5015 13.8109 17.3464 13.471C17.1914 13.1311 16.9267 12.8531 16.5949 12.6815C16.2634 12.5116 15.8842 12.459 15.5189 12.5321C15.1537 12.6051 14.8239 12.7997 14.5833 13.084" stroke="#5521B5" stroke-width="1.5" stroke-linecap="round" stroke-linejoin="round"/>
</g>
<defs>
<clipPath id="clip0_2_11040">
<rect width="20" height="20" fill="white"/>
</clipPath>
</defs>
</svg>
