<svg width="20" height="20" viewBox="0 0 20 20" fill="none" xmlns="http://www.w3.org/2000/svg">
<path d="M0.481302 0.832031C1.0531 0.832203 10.1763 0.832031 10.1763 0.832031C9.20264 1.35886 7.17027 2.66062 6.82982 3.65296C11.689 0.515868 19.498 1.18535 19.6592 1.23801C19.8204 1.29067 20.0657 1.37078 19.9836 1.69467C19.9016 2.01856 10.8641 18.1615 10.4772 18.8818C10.3291 19.1574 9.88852 19.3934 9.45679 18.7751C9.02506 18.1568 7.22091 14.7928 6.81856 13.9605C6.92985 12.0238 9.92483 8.89479 13.3293 6.49396C10.3504 7.73439 7.2493 10.2307 5.9912 12.6526C5.40321 11.6286 4.82429 10.6232 4.70822 10.4134C4.31632 9.70502 1.66696 5.40156 0.135982 1.96785C-0.0786108 1.48656 -0.0904905 0.83186 0.481302 0.832031Z" fill="white"/>
</svg>
