<svg width="16" height="16" viewBox="0 0 16 16" fill="none" xmlns="http://www.w3.org/2000/svg">
<path d="M2.66675 2.66727V6.0006H3.05475M3.05475 6.0006C3.49731 4.90602 4.29054 3.98921 5.3101 3.39384C6.32967 2.79848 7.51795 2.55821 8.68873 2.7107C9.8595 2.86318 10.9466 3.3998 11.7797 4.23645C12.6127 5.07311 13.1446 6.16251 13.2921 7.33394M3.05475 6.0006H6.00008M13.3334 13.3339V10.0006H12.9461M12.9461 10.0006C12.5029 11.0945 11.7094 12.0106 10.69 12.6055C9.67051 13.2003 8.48257 13.4403 7.31215 13.2879C6.14172 13.1354 5.05488 12.5992 4.22177 11.7631C3.38866 10.927 2.85632 9.83823 2.70808 8.66727M12.9461 10.0006H10.0001" stroke="#6B7280" stroke-width="1.5" stroke-linecap="round" stroke-linejoin="round"/>
</svg>
