<svg width="20" height="20" viewBox="0 0 20 20" fill="none" xmlns="http://www.w3.org/2000/svg">
<circle cx="10" cy="10" r="9.58333" fill="url(#paint0_linear_2_27149)" stroke="white" stroke-width="0.833333"/>
<path d="M9.71306 10.4981H10.5527L11.1438 11.2687L11.4227 11.6112L12.3646 12.8402H11.4918L10.862 12.0199L10.6466 11.7216L9.71306 10.4981ZM12.5469 9.50375C12.5469 10.1077 12.4364 10.627 12.2154 11.0615C11.9945 11.4942 11.6916 11.8275 11.3067 12.0614C10.9237 12.2934 10.4883 12.4094 10.0003 12.4094C9.51051 12.4094 9.0732 12.2934 8.68836 12.0614C8.30536 11.8275 8.00338 11.4933 7.78242 11.0588C7.56146 10.6242 7.45098 10.1059 7.45098 9.50375C7.45098 8.89979 7.56146 8.38146 7.78242 7.94874C8.00338 7.51419 8.30536 7.18091 8.68836 6.9489C9.0732 6.71505 9.51051 6.59813 10.0003 6.59813C10.4883 6.59813 10.9237 6.71505 11.3067 6.9489C11.6916 7.18091 11.9945 7.51419 12.2154 7.94874C12.4364 8.38146 12.5469 8.89979 12.5469 9.50375ZM11.7017 9.50375C11.7017 9.04342 11.6271 8.65582 11.478 8.34095C11.3307 8.02424 11.1281 7.78487 10.8703 7.62283C10.6144 7.45895 10.3244 7.37701 10.0003 7.37701C9.67439 7.37701 9.38346 7.45895 9.12752 7.62283C8.87157 7.78487 8.66902 8.02424 8.51988 8.34095C8.37257 8.65582 8.29892 9.04342 8.29892 9.50375C8.29892 9.96408 8.37257 10.3526 8.51988 10.6693C8.66902 10.9842 8.87157 11.2236 9.12752 11.3874C9.38346 11.5495 9.67439 11.6305 10.0003 11.6305C10.3244 11.6305 10.6144 11.5495 10.8703 11.3874C11.1281 11.2236 11.3307 10.9842 11.478 10.6693C11.6271 10.3526 11.7017 9.96408 11.7017 9.50375Z" fill="white"/>
<defs>
<linearGradient id="paint0_linear_2_27149" x1="-8.71473" y1="-7.1875" x2="21.5316" y2="-5.23586" gradientUnits="userSpaceOnUse">
<stop offset="0.0001" stop-color="#031953"/>
<stop offset="1" stop-color="#0236C2"/>
</linearGradient>
</defs>
</svg>
