<svg width="16" height="16" viewBox="0 0 16 16" fill="none" xmlns="http://www.w3.org/2000/svg">
<path d="M3.05727 3.05849C2.80722 3.30854 2.66675 3.64768 2.66675 4.0013V5.33464C2.66675 5.68826 2.80722 6.0274 3.05727 6.27744C3.30732 6.52749 3.64646 6.66797 4.00008 6.66797H5.33341C5.68704 6.66797 6.02617 6.52749 6.27622 6.27744C6.52627 6.0274 6.66675 5.68826 6.66675 5.33464V4.0013C6.66675 3.64768 6.52627 3.30854 6.27622 3.05849C6.02617 2.80844 5.68704 2.66797 5.33341 2.66797H4.00008C3.64646 2.66797 3.30732 2.80844 3.05727 3.05849Z" stroke="white" stroke-linecap="round" stroke-linejoin="round"/>
<path d="M9.72394 3.05849C9.47389 3.30854 9.33341 3.64768 9.33341 4.0013V5.33464C9.33341 5.68826 9.47389 6.0274 9.72394 6.27744C9.97399 6.52749 10.3131 6.66797 10.6667 6.66797H12.0001C12.3537 6.66797 12.6928 6.52749 12.9429 6.27744C13.1929 6.0274 13.3334 5.68826 13.3334 5.33464V4.0013C13.3334 3.64768 13.1929 3.30854 12.9429 3.05849C12.6928 2.80844 12.3537 2.66797 12.0001 2.66797H10.6667C10.3131 2.66797 9.97399 2.80844 9.72394 3.05849Z" stroke="white" stroke-linecap="round" stroke-linejoin="round"/>
<path d="M3.05727 9.72516C2.80722 9.97521 2.66675 10.3143 2.66675 10.668V12.0013C2.66675 12.3549 2.80722 12.6941 3.05727 12.9441C3.30732 13.1942 3.64646 13.3346 4.00008 13.3346H5.33341C5.68704 13.3346 6.02617 13.1942 6.27622 12.9441C6.52627 12.6941 6.66675 12.3549 6.66675 12.0013V10.668C6.66675 10.3143 6.52627 9.97521 6.27622 9.72516C6.02617 9.47511 5.68704 9.33463 5.33341 9.33463H4.00008C3.64646 9.33463 3.30732 9.47511 3.05727 9.72516Z" stroke="white" stroke-linecap="round" stroke-linejoin="round"/>
<path d="M9.72394 9.72516C9.47389 9.97521 9.33341 10.3143 9.33341 10.668V12.0013C9.33341 12.3549 9.47389 12.6941 9.72394 12.9441C9.97399 13.1942 10.3131 13.3346 10.6667 13.3346H12.0001C12.3537 13.3346 12.6928 13.1942 12.9429 12.9441C13.1929 12.6941 13.3334 12.3549 13.3334 12.0013V10.668C13.3334 10.3143 13.1929 9.97521 12.9429 9.72516C12.6928 9.47511 12.3537 9.33463 12.0001 9.33463H10.6667C10.3131 9.33463 9.97399 9.47511 9.72394 9.72516Z" stroke="white" stroke-linecap="round" stroke-linejoin="round"/>
</svg>
